<?xml version="1.0" standalone="no"?>
<!DOCTYPE svg PUBLIC "-//W3C//DTD SVG 20010904//EN"
 "http://www.w3.org/TR/2001/REC-SVG-20010904/DTD/svg10.dtd">
<svg version="1.0" xmlns="http://www.w3.org/2000/svg"
 width="1024.000000pt" height="1024.000000pt" viewBox="0 0 1024.000000 1024.000000"
 preserveAspectRatio="xMidYMid meet">

<g transform="translate(0.000000,1024.000000) scale(0.100000,-0.100000)"
fill="#000000" stroke="none">
<path d="M0 5120 l0 -5120 5120 0 5120 0 0 5120 0 5120 -5120 0 -5120 0 0
-5120z m5408 3400 c386 -40 669 -138 816 -283 l58 -58 89 51 c49 27 94 50 101
50 16 0 289 -143 448 -235 251 -145 283 -174 421 -378 86 -128 193 -269 266
-351 63 -71 181 -245 252 -372 73 -133 122 -242 186 -421 l47 -133 168 0 168
0 -202 -302 c-182 -273 -547 -798 -717 -1033 -36 -49 -69 -96 -73 -103 -7 -12
25 -13 188 -10 108 1 196 1 196 0 0 -2 -40 -59 -90 -125 -176 -240 -298 -412
-294 -416 2 -2 123 4 270 14 229 16 267 17 275 4 5 -8 7 -280 5 -669 -3 -360
-5 -847 -5 -1082 l-1 -427 -32 -5 c-33 -6 -123 -12 -563 -41 -126 -8 -255 -17
-285 -19 -30 -3 -98 -8 -150 -12 -52 -4 -102 -8 -110 -10 -8 -1 -33 -3 -55 -4
-34 -1 -49 -9 -105 -61 -134 -124 -444 -376 -528 -429 -127 -80 -304 -146
-442 -164 -44 -6 -285 -21 -500 -31 -58 -3 -181 -10 -274 -16 -355 -24 -558
24 -809 189 -75 49 -381 277 -525 391 -59 46 -85 73 -89 93 l-5 28 -104 0
-104 0 0 -55 c0 -53 0 -54 -32 -59 -18 -3 -85 -7 -148 -10 -99 -4 -476 -25
-737 -40 l-83 -5 0 527 c0 506 -1 529 -20 580 -38 100 -89 197 -156 300 l-67
103 189 192 c104 106 217 231 252 278 l64 86 156 6 c86 4 201 7 255 7 53 0 97
2 97 5 0 3 -26 40 -59 83 -32 42 -125 172 -206 287 -82 116 -197 275 -256 355
l-108 145 184 3 c102 1 185 4 185 7 0 2 -28 44 -62 92 -248 353 -509 740 -836
1238 l-72 110 174 3 174 2 6 30 c10 51 116 309 173 424 67 133 182 316 259
411 95 118 246 324 331 450 81 121 131 176 213 231 116 79 611 344 642 344 7
0 54 -24 103 -54 l90 -55 43 49 c50 57 152 127 247 170 124 55 382 114 575
130 133 11 431 11 538 0z"/>
<path d="M4900 8363 c-127 -9 -345 -48 -440 -79 -127 -41 -215 -91 -281 -161
l-49 -52 0 -85 c0 -78 -8 -103 -25 -76 -16 26 -264 210 -283 210 -12 0 -213
-110 -466 -253 l-178 -102 -123 -185 c-68 -102 -167 -236 -220 -299 -196 -232
-344 -494 -445 -787 l-41 -121 92 -92 c50 -50 89 -94 87 -96 -3 -3 -65 4 -139
14 -172 25 -249 33 -249 25 0 -10 382 -580 599 -894 195 -282 305 -428 406
-538 l39 -44 -69 7 c-87 8 -339 22 -343 19 -2 -1 25 -42 60 -91 34 -49 137
-195 228 -326 91 -130 198 -284 238 -342 l74 -105 -55 0 c-72 0 -490 -18 -587
-25 -74 -6 -75 -6 -115 -53 -22 -25 -108 -118 -191 -205 l-151 -159 44 -67
c24 -36 71 -119 104 -183 l59 -117 0 -467 c-1 -257 1 -468 2 -470 2 -1 71 1
153 6 83 5 231 12 330 16 99 3 183 8 188 11 4 2 7 26 7 54 0 40 3 49 18 50 9
0 28 2 42 4 34 5 386 25 433 25 l37 0 0 -78 0 -78 77 -59 c445 -347 579 -432
744 -474 149 -38 234 -37 1104 14 205 12 374 79 555 219 85 65 367 305 448
380 l63 59 107 8 c167 12 254 18 432 29 91 5 190 12 220 14 30 3 102 8 160 11
58 3 129 8 158 11 l52 5 0 930 0 929 -37 0 c-21 -1 -175 -7 -343 -14 -168 -8
-306 -13 -308 -11 -1 1 37 58 85 126 189 269 272 389 283 409 11 21 10 22 -42
16 -134 -14 -359 -28 -365 -23 -3 4 26 44 64 89 159 189 244 301 403 531 52
76 120 172 149 215 138 195 431 636 426 641 -5 4 -102 -6 -345 -36 l-45 -5 93
93 c50 52 92 100 92 107 0 8 -23 75 -51 150 -94 252 -273 566 -408 715 -77 85
-152 185 -271 361 -108 159 -66 126 -435 341 -115 68 -231 133 -257 146 l-47
23 -72 -50 c-39 -27 -103 -75 -140 -106 -38 -32 -71 -58 -74 -58 -3 0 -5 36
-5 81 l0 80 -52 55 c-116 123 -369 208 -697 233 -124 10 -402 12 -511 4z m656
-152 c225 -42 383 -100 434 -158 30 -34 30 -34 30 -159 l0 -125 -28 15 c-28
14 -29 18 -35 110 -7 100 -22 143 -44 125 -13 -11 -43 0 -46 17 -1 5 -9 8 -17
6 -8 -1 -40 -3 -70 -4 -31 -1 -66 -8 -80 -17 -13 -9 -36 -17 -50 -18 -14 0
-44 -2 -68 -4 -23 -1 -47 -8 -53 -15 -6 -8 -27 -16 -48 -20 -20 -4 -39 -11
-42 -16 -7 -11 10 -11 -279 -9 -186 2 -251 -2 -365 -19 -205 -31 -346 -70
-450 -124 -33 -17 -63 -32 -67 -34 -5 -2 -8 53 -8 123 0 100 4 133 16 155 49
82 283 160 568 190 44 5 196 7 336 5 207 -2 276 -7 366 -24z m306 -178 c-6 -2
-9 -10 -6 -15 4 -7 2 -8 -5 -4 -13 9 -5 26 12 25 9 0 8 -2 -1 -6z m-1869 -204
c102 -106 147 -159 147 -175 0 -22 -87 -182 -118 -217 -10 -11 -23 -15 -36
-11 -38 11 -37 20 2 46 21 15 45 40 52 58 18 42 0 78 -81 164 -63 68 -151 143
-134 116 5 -8 31 -48 57 -89 52 -80 75 -139 64 -168 -7 -17 -8 -17 -18 2 -16
29 -14 28 -53 30 -19 2 -32 -1 -29 -6 3 -5 1 -9 -5 -9 -5 0 -12 9 -16 19 -3
11 -12 18 -20 15 -7 -3 -16 0 -21 7 -4 7 -3 10 4 6 15 -10 42 3 42 19 0 15
-57 60 -72 56 -5 -1 -7 2 -4 7 4 5 2 12 -3 15 -5 3 -11 0 -14 -8 -7 -17 26
-49 38 -39 4 5 5 2 1 -5 -6 -11 -13 -9 -32 9 -13 12 -21 27 -17 33 3 6 3 8 -2
4 -4 -4 -15 -2 -24 5 -8 6 6 -17 31 -53 46 -65 80 -127 92 -166 5 -18 1 -24
-24 -33 -27 -9 -33 -7 -52 14 -20 23 -22 23 -34 7 -8 -10 -13 -12 -14 -5 0 22
-84 123 -102 123 -13 0 -18 -11 -20 -51 -3 -44 -8 -55 -31 -73 -24 -18 -42
-21 -120 -20 -51 1 -100 3 -110 5 -14 3 -23 -7 -38 -46 -31 -80 -33 -93 -10
-60 31 45 54 49 81 12 22 -29 23 -34 11 -86 -6 -31 -27 -130 -46 -221 -72
-346 -143 -475 -354 -638 -33 -26 -47 -42 -36 -42 24 0 126 56 172 94 76 63
255 170 338 201 87 33 149 39 231 21 86 -17 155 -51 210 -103 52 -48 58 -85
49 -284 l-7 -148 -26 10 c-19 7 -35 5 -70 -12 -42 -21 -51 -21 -131 -12 -47 6
-94 14 -103 18 -50 20 9 -60 87 -119 18 -14 7 -15 -120 -10 -77 2 -165 11
-195 19 -71 17 -288 120 -369 174 -34 22 -65 41 -68 41 -6 0 -113 78 -123 89
-3 3 -31 26 -64 51 -57 43 -58 45 -53 86 3 30 0 47 -12 60 -9 9 -11 14 -4 10
6 -3 14 -2 17 3 12 19 -36 24 -53 6 -9 -10 -10 -15 -3 -11 6 4 12 3 12 -2 0
-6 -7 -13 -16 -16 -8 -3 -12 -11 -8 -17 4 -7 -1 -18 -11 -26 -14 -9 -15 -13
-4 -13 12 0 12 -2 -1 -10 -12 -7 -12 -12 -2 -22 6 -6 12 -20 12 -30 0 -10 5
-18 10 -18 5 0 20 -9 33 -20 44 -41 54 -48 157 -117 237 -157 285 -183 495
-261 124 -47 232 -76 320 -87 52 -7 56 -9 35 -17 -44 -16 -210 -13 -274 6 -92
27 -284 113 -366 163 -165 102 -401 268 -500 350 -7 6 37 126 90 246 62 138
146 272 260 417 177 225 281 372 355 506 31 56 31 56 274 202 213 128 311 182
331 182 8 0 81 -68 163 -151z m2741 -15 c276 -164 278 -166 314 -225 91 -149
213 -324 277 -399 167 -194 287 -394 387 -644 l43 -108 -35 -30 c-80 -67 -373
-271 -473 -330 -132 -77 -283 -144 -377 -169 -51 -13 -221 -14 -265 -1 l-30 9
32 5 c19 2 30 1 26 -5 -4 -6 -1 -7 8 -1 8 4 19 9 24 10 142 22 376 98 515 169
74 38 243 149 368 243 102 77 133 104 100 87 -7 -4 -5 0 5 8 11 9 16 23 13 38
-3 13 -5 27 -5 32 -1 4 -6 7 -12 7 -5 0 -7 -5 -3 -11 5 -8 1 -8 -14 0 -29 16
-34 14 -27 -10 5 -16 4 -19 -5 -14 -9 5 -11 4 -6 -3 8 -13 -42 -63 -119 -118
-27 -19 -90 -64 -140 -100 -102 -72 -258 -153 -355 -183 -75 -23 -295 -45
-358 -36 l-43 6 38 30 c39 31 83 79 83 91 0 4 -11 3 -24 -2 -14 -5 -59 -12
-100 -16 -65 -6 -83 -4 -126 15 -39 17 -55 19 -70 11 -20 -11 -20 -7 -20 189
l0 200 38 37 c82 80 224 123 344 104 37 -5 91 -21 120 -34 68 -30 264 -150
303 -185 47 -43 186 -113 185 -93 -1 4 -22 23 -48 42 -185 137 -275 300 -338
610 -14 69 -34 159 -45 202 -10 42 -19 80 -19 85 0 4 14 23 31 42 l31 33 30
-28 c34 -32 34 -31 0 54 -14 36 -20 42 -37 36 -11 -4 -59 -9 -106 -11 -85 -5
-87 -4 -120 25 -30 27 -33 34 -30 76 2 43 1 46 -23 46 -21 0 -34 -13 -68 -63
-26 -40 -54 -69 -73 -77 -16 -7 -38 -19 -47 -27 -25 -22 -38 -7 -36 40 2 52
40 138 87 197 69 85 69 85 21 55 -25 -16 -71 -53 -102 -82 -31 -29 -60 -53
-65 -54 -4 0 -20 -2 -35 -4 -24 -3 -28 0 -28 21 0 31 22 75 67 133 48 63 41
70 -18 17 -28 -25 -55 -43 -60 -40 -5 3 -9 -1 -9 -9 0 -8 -7 -20 -15 -27 -15
-13 -21 -2 -7 16 4 5 -2 -1 -13 -13 -12 -13 -28 -23 -37 -23 -25 0 -29 -14
-18 -62 5 -24 12 -55 15 -70 3 -18 20 -37 45 -54 47 -31 49 -40 14 -47 -21 -4
-31 3 -59 42 -51 69 -95 155 -95 186 0 22 30 58 147 176 81 82 152 149 158
149 6 0 136 -75 289 -166z m-1264 126 c0 -5 -2 -10 -4 -10 -3 0 -8 5 -11 10
-3 6 -1 10 4 10 6 0 11 -4 11 -10z m-543 -178 c-20 -90 -30 -152 -26 -156 2
-2 121 -6 264 -8 143 -3 270 -9 282 -14 21 -9 20 -11 -28 -100 l-49 -91 -260
-5 c-143 -2 -263 -7 -266 -11 -22 -22 -60 -473 -79 -942 -9 -228 -9 -228 -121
-512 -140 -354 -245 -653 -294 -830 -22 -81 -40 -151 -40 -156 0 -11 1 -11
149 42 94 34 112 38 106 24 -4 -10 -11 -161 -16 -336 l-8 -318 -47 -87 c-83
-154 -104 -195 -104 -208 0 -8 -35 -14 -107 -18 -60 -4 -127 -9 -150 -11 l-43
-5 0 1593 c0 1520 1 1594 19 1632 29 64 132 194 223 280 73 70 83 84 83 115 0
32 3 35 50 53 77 29 149 46 285 70 184 33 184 33 177 -1z m917 -135 c9 -4 12
4 11 24 -1 15 2 26 7 23 5 -4 7 -12 4 -20 -3 -8 0 -14 5 -14 6 0 9 -9 6 -20
-3 -11 -1 -18 4 -14 5 3 9 1 9 -3 0 -5 47 -57 105 -117 58 -59 105 -114 105
-121 0 -6 9 -20 21 -31 30 -27 60 -90 53 -111 -4 -13 -3 -15 4 -5 7 11 11 8
15 -10 13 -48 7 -105 -13 -128 l-20 -23 0 26 c0 34 -10 58 -21 51 -8 -4 -14
17 -10 39 0 4 -3 7 -7 7 -17 0 -52 42 -52 62 0 31 -67 136 -129 201 -30 31
-51 57 -47 57 4 0 1 7 -8 15 -8 8 -20 15 -26 15 -6 0 -9 4 -6 8 6 10 -30 43
-37 35 -3 -2 -10 5 -17 16 -8 16 -8 21 1 21 6 0 9 6 6 14 -3 7 0 19 6 25 8 8
7 11 -3 11 -13 0 -13 2 0 10 12 7 16 4 18 -14 2 -14 9 -27 16 -29z m-1969 -57
c-3 -5 2 -11 12 -11 17 -1 17 -2 0 -6 -9 -2 -14 -9 -11 -14 3 -6 -3 -5 -14 2
-16 10 -18 16 -10 26 12 15 32 18 23 3z m2471 -23 c1 -9 -2 -15 -7 -11 -5 3
-7 9 -4 14 3 4 0 11 -5 13 -6 3 -5 4 1 3 7 -1 13 -10 15 -19z m-2432 -15 c3
-5 -1 -9 -9 -9 -8 0 -12 4 -9 9 3 4 7 8 9 8 2 0 6 -4 9 -8z m-193 -95 c-10 -9
-11 -8 -5 6 3 10 9 15 12 12 3 -3 0 -11 -7 -18z m-1 -22 c0 -7 -30 -13 -34 -7
-3 4 4 9 15 9 10 1 19 0 19 -2z m-75 -171 c67 -19 184 -19 231 1 20 8 39 15
43 15 3 0 7 -115 9 -256 1 -141 -1 -254 -5 -252 -5 1 -42 20 -83 41 -105 52
-223 73 -339 60 -47 -6 -89 -7 -92 -4 -4 3 4 47 16 96 43 172 121 333 154 319
9 -3 39 -13 66 -20z m3108 -41 c19 -38 42 -93 52 -122 16 -48 64 -234 61 -237
-1 0 -43 4 -95 9 -128 14 -247 -10 -371 -73 l-40 -20 0 249 0 250 46 -16 c55
-19 195 -13 259 11 22 8 43 15 46 15 4 1 22 -29 42 -66z m-1276 -10 c-5 -24
-21 -125 -43 -273 -2 -19 -7 -64 -10 -100 -2 -36 -6 -76 -9 -90 -2 -14 -6 -59
-10 -100 -15 -189 -56 -608 -61 -639 -5 -26 -4 -32 7 -28 53 22 490 149 495
144 3 -3 -142 -353 -203 -492 -179 -404 -494 -1012 -720 -1390 l-54 -90 6 95
c12 181 45 545 60 660 11 81 15 112 40 252 14 81 25 149 25 151 0 12 -201 -36
-462 -110 -14 -4 -6 23 36 133 214 554 378 903 776 1644 31 58 71 140 89 183
35 80 48 97 38 50z m2173 -723 c8 -5 12 -11 10 -14 -3 -2 -14 2 -24 10 -22 15
-10 19 14 4z m210 -425 c0 -3 -22 -33 -50 -68 -27 -34 -98 -123 -156 -197
-133 -167 -294 -360 -301 -360 -3 0 -2 12 1 26 7 26 103 158 244 337 41 50 83
105 94 121 20 26 20 28 2 19 -31 -16 -104 -32 -247 -52 -121 -18 -145 -25
-243 -72 -60 -29 -122 -62 -139 -75 -88 -66 -264 -132 -369 -138 -72 -4 -318
16 -348 29 -28 11 -21 35 15 50 35 14 211 47 347 64 47 6 96 13 110 16 126 21
169 30 262 56 124 33 221 66 403 137 118 46 270 93 335 105 14 2 28 5 33 6 4
0 7 -1 7 -4z m-5320 -29 c47 -13 148 -47 225 -76 323 -122 527 -179 726 -205
176 -23 408 -64 430 -76 52 -28 4 -52 -126 -63 -221 -20 -302 -14 -425 33 -49
19 -82 37 -194 105 -118 72 -450 204 -532 211 -19 2 -50 9 -70 15 -19 7 -37
10 -39 8 -2 -2 44 -66 103 -143 59 -77 140 -190 181 -250 41 -61 78 -111 82
-113 5 -2 9 -15 9 -28 0 -22 -7 -17 -53 38 -76 90 -283 349 -353 442 -32 43
-67 89 -77 102 -18 24 -18 24 5 24 13 0 61 -11 108 -24z m5110 -2700 l0 -764
-27 -6 c-16 -3 -88 -8 -160 -12 l-133 -7 0 299 0 299 -132 -6 c-73 -4 -134 -7
-135 -8 -2 0 -3 -138 -3 -306 l0 -305 -42 0 c-24 0 -94 -3 -155 -7 l-113 -6 0
770 0 771 73 6 c39 3 109 8 155 12 l82 6 0 -305 0 -305 123 5 c67 2 128 6 135
8 9 3 12 73 12 305 l0 300 48 1 c44 1 232 14 260 17 9 2 12 -157 12 -762z
m-1188 645 c64 -30 130 -106 151 -171 11 -33 17 -85 17 -141 l0 -89 -32 0
c-18 0 -81 -3 -140 -7 l-108 -5 0 50 c0 66 -21 92 -81 99 -99 11 -136 -40
-120 -165 13 -100 37 -131 138 -171 43 -17 98 -41 123 -54 64 -32 150 -122
188 -198 l34 -66 -4 -204 c-3 -197 -4 -206 -30 -261 -56 -121 -150 -188 -290
-210 -146 -22 -293 17 -369 99 -61 66 -82 122 -87 229 l-4 91 118 7 c66 4 129
10 142 13 20 5 22 1 22 -31 0 -68 67 -109 141 -87 57 17 69 48 69 175 0 57 -3
112 -6 121 -8 20 -59 46 -148 74 -217 69 -326 235 -326 498 0 133 31 227 102
308 84 95 170 126 338 122 96 -2 123 -7 162 -26z m-714 -791 l-3 -535 -28 -59
c-37 -81 -89 -141 -159 -186 -86 -56 -162 -73 -299 -68 -102 4 -121 7 -179 35
-91 43 -143 92 -182 171 l-33 67 -3 649 c-1 357 1 653 5 657 4 4 74 11 155 15
l148 7 2 -591 3 -592 27 -26 c20 -20 39 -28 79 -32 63 -6 106 14 135 61 18 30
19 59 22 615 l3 582 37 1 c20 1 89 4 152 8 l115 6 3 -125 c1 -69 1 -366 0
-660z m-1166 647 c69 -34 111 -87 138 -176 17 -54 20 -92 20 -275 0 -238 -9
-315 -47 -395 -36 -77 -126 -163 -196 -189 -52 -20 -167 -39 -267 -44 l-45 -3
-3 -231 -2 -232 -33 -5 c-17 -3 -89 -9 -160 -13 l-127 -6 2 791 3 791 30 1
c17 1 95 5 175 9 80 4 215 7 300 6 148 -1 157 -2 212 -29z m-1622 -771 l0
-685 -42 -5 c-24 -3 -94 -7 -155 -10 l-113 -5 0 480 c0 263 -3 479 -7 479 -5
0 -17 -7 -27 -15 -19 -14 -22 -10 -68 77 -26 51 -48 96 -48 100 0 4 56 63 125
132 l125 125 77 4 c43 1 90 4 106 5 l27 2 0 -684z m742 19 c-1 -296 -3 -540
-5 -541 -1 -1 -46 -5 -99 -9 l-98 -7 0 201 0 201 -109 0 c-90 0 -110 -3 -115
-16 -3 -9 -6 -103 -6 -210 l0 -194 -94 0 -95 0 -3 123 c-2 67 -5 309 -6 538
l-3 416 62 7 c34 3 82 6 105 6 l44 0 0 -199 0 -198 98 4 c53 3 103 6 110 8 9
3 12 53 12 204 l0 200 88 4 c48 2 94 3 102 2 13 0 15 -66 12 -540z m2122 -944
c10 -11 15 -25 11 -30 -8 -14 -35 -14 -35 0 0 6 -12 9 -27 7 -25 -3 -28 -8
-31 -42 -5 -61 5 -88 31 -84 30 4 37 48 8 48 -14 0 -21 6 -21 20 0 17 7 20 40
20 l40 0 0 -49 c0 -55 -22 -81 -70 -81 -14 0 -36 7 -48 16 -19 13 -22 24 -22
84 0 62 2 70 26 89 33 26 76 27 98 2z m-214 -90 c0 -55 -4 -102 -9 -105 -17
-11 -36 4 -66 52 l-30 47 -3 -52 c-3 -45 -6 -53 -23 -53 -18 0 -19 8 -19 100
0 89 2 100 18 100 10 0 33 -24 54 -58 l38 -57 0 63 c0 55 2 62 20 62 19 0 20
-7 20 -99z m-412 63 c43 -30 18 -60 -27 -32 -15 9 -23 9 -36 -2 -21 -18 -6
-32 48 -45 38 -10 42 -14 45 -46 4 -49 -22 -71 -79 -67 -35 2 -46 8 -56 28
-11 23 -10 25 9 28 12 2 24 -1 26 -7 2 -6 17 -11 33 -11 22 0 29 5 29 20 0 15
-7 20 -28 20 -47 0 -74 26 -70 68 5 55 60 79 106 46z m162 -84 c0 -93 -1 -100
-20 -100 -19 0 -20 7 -20 100 0 93 1 100 20 100 19 0 20 -7 20 -100z m-360 60
c0 -17 -7 -20 -48 -20 -41 0 -48 -3 -48 -20 0 -16 7 -20 38 -20 31 0 38 -4 38
-20 0 -16 -7 -20 -33 -20 -38 0 -48 -6 -40 -26 3 -9 21 -14 49 -14 37 0 44 -3
44 -20 0 -18 -7 -20 -70 -20 l-71 0 5 28 c2 15 5 60 5 100 l1 72 65 0 c58 0
65 -2 65 -20z m-230 -9 c15 -29 12 -62 -7 -83 -16 -18 -16 -21 0 -47 22 -37
21 -41 -2 -41 -11 0 -28 15 -41 35 -28 45 -38 44 -42 -2 -2 -27 -8 -39 -20
-41 -16 -3 -18 7 -18 97 l0 101 60 0 c48 0 61 -4 70 -19z m-220 -23 c13 -25
13 -31 0 -55 -12 -21 -25 -29 -55 -33 -38 -5 -40 -7 -43 -42 -2 -25 -8 -38
-18 -38 -11 0 -14 20 -14 100 l0 101 57 -3 c51 -3 59 -6 73 -30z"/>
<path d="M5490 7990 c18 -12 30 -13 30 -2 0 4 -10 9 -22 9 -18 2 -20 0 -8 -7z"/>
<path d="M3838 7603 c7 -3 16 -2 19 1 4 3 -2 6 -13 5 -11 0 -14 -3 -6 -6z"/>
<path d="M7620 6525 c0 -8 5 -15 10 -15 6 0 10 7 10 15 0 8 -4 15 -10 15 -5 0
-10 -7 -10 -15z"/>
<path d="M6730 6359 c0 -5 -4 -7 -10 -4 -10 6 -77 -21 -85 -36 -3 -4 9 -3 27
3 18 5 42 11 53 12 27 2 47 15 40 27 -8 12 -25 11 -25 -2z"/>
<path d="M4208 3542 l-28 -3 0 -225 0 -224 78 0 c96 0 145 13 172 47 18 24 20
40 20 199 l0 173 -27 21 c-24 18 -38 21 -108 18 -44 -2 -92 -4 -107 -6z"/>
<path d="M4680 2025 c0 -23 4 -26 28 -23 19 2 27 9 27 23 0 14 -8 21 -27 23
-24 3 -28 0 -28 -23z"/>
<path d="M4467 2033 c-4 -3 -7 -15 -7 -25 0 -20 44 -26 55 -8 14 22 -30 52
-48 33z"/>
</g>
</svg>
